<svg xmlns="http://www.w3.org/2000/svg" width="1200" height="700">
<rect x="0" y="0" width="1200" height="700" fill="white"/>
<text x="600.0" y="35" text-anchor="middle" font-size="24" font-family="sans-serif">IDCP vs Conventional: subsystem improvement (%)</text>
<line x1="90" y1="70" x2="90" y2="530" stroke="black" stroke-width="1"/>
<line x1="90" y1="406.66" x2="1170" y2="406.66" stroke="#777" stroke-width="1"/>
<line x1="85" y1="530.00" x2="90" y2="530.00" stroke="black"/>
<text x="80" y="534.00" text-anchor="end" font-size="12" font-family="monospace">-33.8</text>
<line x1="85" y1="438.00" x2="90" y2="438.00" stroke="black"/>
<text x="80" y="442.00" text-anchor="end" font-size="12" font-family="monospace">-8.6</text>
<line x1="85" y1="346.00" x2="90" y2="346.00" stroke="black"/>
<text x="80" y="350.00" text-anchor="end" font-size="12" font-family="monospace">16.6</text>
<line x1="85" y1="254.00" x2="90" y2="254.00" stroke="black"/>
<text x="80" y="258.00" text-anchor="end" font-size="12" font-family="monospace">41.8</text>
<line x1="85" y1="162.00" x2="90" y2="162.00" stroke="black"/>
<text x="80" y="166.00" text-anchor="end" font-size="12" font-family="monospace">67.1</text>
<line x1="85" y1="70.00" x2="90" y2="70.00" stroke="black"/>
<text x="80" y="74.00" text-anchor="end" font-size="12" font-family="monospace">92.3</text>
<rect x="103.50" y="200.39" width="40.50" height="206.28" fill="#2E86AB"/>
<rect x="171.00" y="406.66" width="40.50" height="108.77" fill="#A23B72"/>
<rect x="238.50" y="247.05" width="40.50" height="159.61" fill="#F18F01"/>
<text x="225.00" y="554" text-anchor="end" transform="rotate(-30 225.00 554)" font-size="12" font-family="sans-serif">agent-mesh</text>
<rect x="373.50" y="131.54" width="40.50" height="275.12" fill="#2E86AB"/>
<rect x="441.00" y="406.66" width="40.50" height="39.99" fill="#A23B72"/>
<rect x="508.50" y="247.05" width="40.50" height="159.61" fill="#F18F01"/>
<text x="495.00" y="554" text-anchor="end" transform="rotate(-30 495.00 554)" font-size="12" font-family="sans-serif">plugin-host</text>
<rect x="643.50" y="210.94" width="40.50" height="195.72" fill="#2E86AB"/>
<rect x="711.00" y="70.00" width="40.50" height="336.66" fill="#A23B72"/>
<rect x="778.50" y="167.25" width="40.50" height="239.42" fill="#F18F01"/>
<text x="765.00" y="554" text-anchor="end" transform="rotate(-30 765.00 554)" font-size="12" font-family="sans-serif">embedding-farm</text>
<rect x="913.50" y="210.52" width="40.50" height="196.14" fill="#2E86AB"/>
<rect x="981.00" y="406.66" width="40.50" height="123.34" fill="#A23B72"/>
<rect x="1048.50" y="247.05" width="40.50" height="159.61" fill="#F18F01"/>
<text x="1035.00" y="554" text-anchor="end" transform="rotate(-30 1035.00 554)" font-size="12" font-family="sans-serif">terminal-graph</text>
<text x="20" y="300.00" transform="rotate(-90 20 300.00)" text-anchor="middle" font-size="13" font-family="sans-serif">improvement % (higher is better)</text>
<rect x="90" y="640" width="18" height="18" fill="#2E86AB"/>
<text x="114" y="654" font-size="13" font-family="sans-serif">memory %</text>
<rect x="310" y="640" width="18" height="18" fill="#A23B72"/>
<text x="334" y="654" font-size="13" font-family="sans-serif">flow %</text>
<rect x="530" y="640" width="18" height="18" fill="#F18F01"/>
<text x="554" y="654" font-size="13" font-family="sans-serif">copy %</text>
</svg>